inDegrees=yes
name=ik_data_2024_11_07_18_54
DataType=double
version=3
OpenSimVersion=4.5.1
endheader
time	pelvis_tilt	pelvis_list	pelvis_rotation	pelvis_tx	pelvis_ty	pelvis_tz	hip_flexion_r	hip_adduction_r	hip_rotation_r	knee_angle_r	knee_angle_r_beta	ankle_angle_r	subtalar_angle_r	mtp_angle_r	hip_flexion_l	hip_adduction_l	hip_rotation_l	knee_angle_l	knee_angle_l_beta	ankle_angle_l	subtalar_angle_l	mtp_angle_l	lumbar_extension	lumbar_bending	lumbar_rotation	arm_flex_r	arm_add_r	arm_rot_r	elbow_flex_r	pro_sup_r	wrist_flex_r	wrist_dev_r	arm_flex_l	arm_add_l	arm_rot_l	elbow_flex_l	pro_sup_l	wrist_flex_l	wrist_dev_l
15.05614	-2.334053631990336	0.5600027110788041	-18.11669385532686	0	0.9399999999999999	0	17.3357919260658	-24.13347978063086	26.00709951136627	38.67484740050302	0.6750034248451477	-5.055919612539723	0	0	2.65937010195105	-0.1976161120379561	1.609353172283956	0.5135998981031741	0.008964009259807768	-5.055919612539723	0	0	0	0	0	0	-9.755089699034164	0	74.22663823669726	45.18540335348418	0	0	0	-9.755089699034164	0	74.22663823669726	45.18540335348418	0	0
15.12227	-2.115393201903442	0.2724974909603441	-18.95802847250548	0	0.9399999999999999	0	16.59910197098383	-23.56794368376557	24.48995053327523	37.43968413685209	0.6534457590947603	-5.055302887985061	0	0	2.357147513708561	-0.445504215434695	0.7720112105592544	0.5115118095165377	0.008927565238897648	-5.055302887985061	0	0	0	0	0	0	-9.765894603888169	0	74.22934140616807	45.18399418435509	0	0	0	-9.765894603888169	0	74.22934140616807	45.18399418435509	0	0
15.12448	-1.7968165256328	-0.01500997606844653	-19.86836237084179	0	0.9399999999999999	0	16.24185958320859	-22.67797242683806	23.1637507736206	37.02239663390206	0.6461627182408567	-5.054671400309418	0	0	1.943861588126468	-0.6392455328630008	-0.1264945977292448	0.5013844486455952	0.008750809447162059	-5.054671400309418	0	0	0	0	0	0	-9.77754371473392	0	74.23222021304234	45.1825299369395	0	0	0	-9.77754371473392	0	74.23222021304234	45.1825299369395	0	0
15.17356	-1.931721510480655	0.22564143554798	-19.17396509033656	0	0.9399999999999999	0	16.67734627447357	-22.38025161239705	20.71327026585019	36.45822655856075	0.6363160928849264	-5.054100199599623	0	0	2.176596765895714	-0.432871221130721	0.5627287090998213	0.5134351238967659	0.008961133407383585	-5.054100199599623	0	0	0	0	0	0	-9.78779752401954	0	74.23477592244923	45.1812123789115	0	0	0	-9.78779752401954	0	74.23477592244923	45.1812123789115	0	0
15.2377	-1.397016165185669	0.1971896880388615	-19.16697026128005	0	0.9399999999999999	0	13.30992390402556	-24.11292138164019	17.07329564859337	28.00446536140269	0.4887701258171807	-5.052814020744257	0	0	1.642815517092555	-0.2800920478732308	0.5830028073344696	0.5001817701219122	0.008729818747080767	-5.052814020744257	0	0	0	0	0	0	-9.810869153975148	0	74.24054461876342	45.1782350324963	0	0	0	-9.810869153975148	0	74.24054461876342	45.1782350324963	0	0
15.3014	-1.233743255340971	-0.2931874957067199	-20.63189301002396	0	0.9399999999999999	0	13.7250368408697	-21.78609525367039	16.79287050696875	28.32218365132253	0.4943153560700877	-5.052030100652785	0	0	1.310581986705607	-0.7236929981097591	-0.8848517463290543	0.5126345218761255	0.008947160266125288	-5.052030100652785	0	0	0	0	0	0	-9.826100445097049	0	74.24427424202212	45.17638304026624	0	0	0	-9.826100445097049	0	74.24427424202212	45.17638304026624	0	0
15.30448	-0.978425626336938	-0.3318620073630579	-20.80578821785559	0	0.9399999999999999	0	11.99054202853086	-20.82460805282185	14.42312745274582	26.64888260122913	0.4651107433688794	-5.051597415548195	0	0	1.058192210395702	-0.6719160027110348	-1.062392730795031	0.5089170110083934	0.008882277461504691	-5.051597415548195	0	0	0	0	0	0	-9.832563852577053	0	74.24597245280366	45.17542651111849	0	0	0	-9.832563852577053	0	74.24597245280366	45.17542651111849	0	0
15.35388	-0.5116764280629074	-0.004200292388750317	-19.81710116855055	0	0.9399999999999999	0	10.36765880744102	-20.30130891912721	11.19211309059438	24.16540039609302	0.421765801974565	-5.051172862035964	0	0	0.7478694661744729	-0.1892760600309912	-0.08364121272207733	0.5181705905365975	0.009043782891866997	-5.051172862035964	0	0	0	0	0	0	-9.838680035290713	0	74.24759939626574	45.17449385605024	0	0	0	-9.838680035290713	0	74.24759939626574	45.17449385605024	0	0
